<svg width="1920" height="925" viewBox="0 0 1920 925" fill="none" xmlns="http://www.w3.org/2000/svg">
<line x1="1920" y1="62.8938" x2="1.28157e-07" y2="62.894" stroke="#121827" stroke-width="3"/>
<line x1="1920" y1="1.5" x2="1.31134e-07" y2="1.50017" stroke="#121827" stroke-width="3"/>
<line x1="1920" y1="431.257" x2="1.28157e-07" y2="431.257" stroke="#121827" stroke-width="3"/>
<line x1="1920" y1="799.619" x2="1.28157e-07" y2="799.619" stroke="#121827" stroke-width="3"/>
<line x1="1920" y1="247.075" x2="1.28157e-07" y2="247.075" stroke="#121827" stroke-width="3"/>
<line x1="1920" y1="615.438" x2="1.28157e-07" y2="615.438" stroke="#121827" stroke-width="3"/>
<line x1="1920" y1="124.288" x2="1.28157e-07" y2="124.288" stroke="#121827" stroke-width="3"/>
<line x1="1920" y1="492.65" x2="1.28157e-07" y2="492.651" stroke="#121827" stroke-width="3"/>
<line x1="1920" y1="861.013" x2="1.28157e-07" y2="861.013" stroke="#121827" stroke-width="3"/>
<line x1="1920" y1="308.469" x2="1.28157e-07" y2="308.469" stroke="#121827" stroke-width="3"/>
<line x1="1920" y1="676.832" x2="1.28157e-07" y2="676.832" stroke="#121827" stroke-width="3"/>
<line x1="1920" y1="185.681" x2="1.28157e-07" y2="185.682" stroke="#121827" stroke-width="3"/>
<line x1="1920" y1="554.044" x2="1.28157e-07" y2="554.045" stroke="#121827" stroke-width="3"/>
<line x1="1920" y1="922.407" x2="1.28157e-07" y2="922.407" stroke="#121827" stroke-width="3"/>
<line x1="1920" y1="369.863" x2="1.28157e-07" y2="369.863" stroke="#121827" stroke-width="3"/>
<line x1="1920" y1="738.226" x2="1.28157e-07" y2="738.226" stroke="#121827" stroke-width="3"/>
<line x1="1919" y1="4.37114e-08" x2="1919" y2="923.977" stroke="#121827" stroke-width="2"/>
<line x1="839" y1="1.02344" x2="839" y2="925" stroke="#121827" stroke-width="2"/>
<line x1="1379" y1="4.37114e-08" x2="1379" y2="923.977" stroke="#121827" stroke-width="2"/>
<line x1="299" y1="1.02344" x2="299" y2="925" stroke="#121827" stroke-width="2"/>
<line x1="1859.5" y1="6.55671e-08" x2="1859.5" y2="923.977" stroke="#121827" stroke-width="3"/>
<line x1="779.5" y1="1.02344" x2="779.5" y2="925" stroke="#121827" stroke-width="3"/>
<line x1="1319.5" y1="6.55671e-08" x2="1319.5" y2="923.977" stroke="#121827" stroke-width="3"/>
<line x1="239.5" y1="1.02344" x2="239.5" y2="925" stroke="#121827" stroke-width="3"/>
<line x1="1619.5" y1="6.55671e-08" x2="1619.5" y2="923.977" stroke="#121827" stroke-width="3"/>
<line x1="539.5" y1="1.02344" x2="539.5" y2="925" stroke="#121827" stroke-width="3"/>
<line x1="1079.5" y1="6.55671e-08" x2="1079.5" y2="923.977" stroke="#121827" stroke-width="3"/>
<line x1="1.5" y1="1.02344" x2="1.49996" y2="925" stroke="#121827" stroke-width="3"/>
<line x1="1799.5" y1="6.55671e-08" x2="1799.5" y2="923.977" stroke="#121827" stroke-width="3"/>
<line x1="719.5" y1="1.02344" x2="719.5" y2="925" stroke="#121827" stroke-width="3"/>
<line x1="1259.5" y1="6.55671e-08" x2="1259.5" y2="923.977" stroke="#121827" stroke-width="3"/>
<line x1="179.5" y1="1.02344" x2="179.5" y2="925" stroke="#121827" stroke-width="3"/>
<line x1="1559.5" y1="6.55671e-08" x2="1559.5" y2="923.977" stroke="#121827" stroke-width="3"/>
<line x1="479.5" y1="1.02344" x2="479.5" y2="925" stroke="#121827" stroke-width="3"/>
<line x1="1019.5" y1="6.55671e-08" x2="1019.5" y2="923.977" stroke="#121827" stroke-width="3"/>
<line x1="1679.5" y1="6.55671e-08" x2="1679.5" y2="923.977" stroke="#121827" stroke-width="3"/>
<line x1="599.5" y1="1.02344" x2="599.5" y2="925" stroke="#121827" stroke-width="3"/>
<line x1="1139.5" y1="6.55671e-08" x2="1139.5" y2="923.977" stroke="#121827" stroke-width="3"/>
<line x1="59.5" y1="1.02344" x2="59.5" y2="925" stroke="#121827" stroke-width="3"/>
<line x1="1439.5" y1="6.55671e-08" x2="1439.5" y2="923.977" stroke="#121827" stroke-width="3"/>
<line x1="359.5" y1="1.02344" x2="359.5" y2="925" stroke="#121827" stroke-width="3"/>
<line x1="899.5" y1="6.55671e-08" x2="899.5" y2="923.977" stroke="#121827" stroke-width="3"/>
<line x1="1739.5" y1="6.55671e-08" x2="1739.5" y2="923.977" stroke="#121827" stroke-width="3"/>
<line x1="659.5" y1="1.02344" x2="659.5" y2="925" stroke="#121827" stroke-width="3"/>
<line x1="1199.5" y1="6.55671e-08" x2="1199.5" y2="923.977" stroke="#121827" stroke-width="3"/>
<line x1="119.5" y1="1.02344" x2="119.5" y2="925" stroke="#121827" stroke-width="3"/>
<line x1="1499.5" y1="6.55671e-08" x2="1499.5" y2="923.977" stroke="#121827" stroke-width="3"/>
<line x1="419.5" y1="1.02344" x2="419.5" y2="925" stroke="#121827" stroke-width="3"/>
<line x1="959.5" y1="6.55671e-08" x2="959.5" y2="923.977" stroke="#121827" stroke-width="3"/>
</svg>
